<?xml version="1.0" encoding="utf-8"?>
<!-- Generator: Adobe Illustrator 22.0.1, SVG Export Plug-In . SVG Version: 6.00 Build 0)  -->
<svg version="1.1" id="Layer_1" xmlns="http://www.w3.org/2000/svg" xmlns:xlink="http://www.w3.org/1999/xlink" x="0px" y="0px"
	 viewBox="0 0 139 139" style="enable-background:new 0 0 139 139;" xml:space="preserve">
<style type="text/css">
	.st0{fill:#667484;}
	.st1{fill:#CCCCCC;stroke:#CCCCCC;stroke-width:8;stroke-linecap:round;stroke-linejoin:round;}
	.st2{fill:#CCCCCC;stroke:#CCCCCC;stroke-miterlimit:10;}
</style>
<circle class="st0" cx="69.5" cy="68.5" r="68.1"/>
<title>Artboard 7</title>
<circle class="st1" cx="69.5" cy="47.8" r="22.9"/>
<path class="st2" d="M98,71.8c-7.9,0-11.7,11-29.3,11s-19.7-10-27.9-11c-1.1-0.1-3.2-0.1-5.4,0.7c-5.1,1.9-7.6,6.6-9.2,9.7
	c-6.1,11.9-5.9,29.3-5.8,33.3c3,3.1,20.8,20.9,49.1,20.8c29,0,46.8-18.6,49.8-21.7c-0.1-16.3-3.5-28.8-7.5-34.4
	c-3.8-5.3-8.4-7.2-8.4-7.2C102.3,72.7,100.4,71.8,98,71.8z"/>
<path class="st2" d="M148.7,15.1"/>
</svg>
