<?xml version="1.0" encoding="utf-8"?>
<!-- Generator: Adobe Illustrator 22.0.1, SVG Export Plug-In . SVG Version: 6.00 Build 0)  -->
<svg version="1.1" id="Layer_1" xmlns="http://www.w3.org/2000/svg" xmlns:xlink="http://www.w3.org/1999/xlink" x="0px" y="0px"
	 viewBox="0 0 51.2 51.2" style="enable-background:new 0 0 51.2 51.2;" xml:space="preserve">
<style type="text/css">
	.st0{fill:none;stroke:#FFFFFF;stroke-width:4;stroke-linecap:square;stroke-linejoin:round;stroke-miterlimit:10;}
	.st1{fill:none;stroke:#FFFFFF;stroke-width:2;stroke-linecap:square;stroke-linejoin:round;stroke-miterlimit:10;}
	.st2{fill:none;stroke:#FFFFFF;stroke-width:3;stroke-linecap:square;stroke-linejoin:round;stroke-miterlimit:10;}
</style>
<path class="st0" d="M41.9,14.8c0,0-30.1,30.4-32.5,32.5c-0.3,0.2-7.5,2-7.5,2l0,0c0.7-2.5,1.3-5,2-7.5l0,0
	C14.8,30.9,25.6,20.1,36.5,9.3l0,0"/>
<line class="st1" x1="4" y1="41.7" x2="9.5" y2="47.2"/>
<path class="st2" d="M46.7,11.4C46.7,11.4,46.7,11.4,46.7,11.4c0,0,1.9-2.1,2.9-3.8c-0.1-0.7-0.6-2.4-2.1-3.9
	c-1.8-1.7-3.8-2.1-4.5-2.1c-1.1,1-2.2,2-3.2,3l0,0L46.7,11.4z"/>
</svg>
