<?xml version="1.0" encoding="utf-8"?>
<!-- Generator: Adobe Illustrator 22.0.1, SVG Export Plug-In . SVG Version: 6.00 Build 0)  -->
<svg version="1.1" id="Layer_1" xmlns="http://www.w3.org/2000/svg" xmlns:xlink="http://www.w3.org/1999/xlink" x="0px" y="0px"
	 viewBox="0 0 61 60.9" style="enable-background:new 0 0 61 60.9;" xml:space="preserve">
<style type="text/css">
	.st0{fill:#FFFFFF;stroke:#FFFFFF;stroke-miterlimit:10;}
</style>
<g>
	<path class="st0" d="M60.5,25.4c0-0.6-0.1-1.1-0.5-1.4c-0.3-0.3-0.8-0.5-1.5-0.5c-0.1,0-0.3,0-0.4,0c-0.6,0-1.2,0-1.9,0
		c-1,0-1.9,0-2.9,0h-0.2L53,23.4c-0.6-1.4-1.1-2.8-1.6-4.2l0,0c0.1-0.1,0.3-0.2,0.4-0.3c1.1-1.1,2.3-2.2,3.4-3.4
		c0.4-0.4,0.7-0.9,0.7-1.4s-0.2-0.9-0.6-1.3c-2.3-2.4-4.7-4.7-7-7.1C47.8,5.2,47.4,5,46.9,5S46,5.3,45.5,5.7
		c-1.2,1.2-2.4,2.4-3.7,3.6c-0.1,0.1-0.2,0.1-0.2,0.1s-0.1,0-0.2-0.1c-1.2-0.5-2.5-1-3.7-1.5c-0.1-0.1-0.2-0.1-0.2-0.1s0-0.1,0-0.2
		l0,0c0-0.9,0-1.8,0-2.6c0-0.9,0-1.7,0-2.6c0-0.6-0.1-1-0.5-1.3c-0.3-0.3-0.8-0.5-1.3-0.5c-1.7,0-3.4,0-5.1,0h-0.1h-0.1
		c-1.7,0-3.4,0-5.1,0c-0.6,0-1,0.1-1.3,0.5c-0.3,0.3-0.5,0.8-0.5,1.3c0,0.9,0,1.7,0,2.6c0,0.9,0,1.8,0,2.6l0,0c0,0.1,0,0.2,0,0.2
		s-0.1,0.1-0.2,0.1c-1.2,0.5-2.5,1-3.7,1.5c-0.1,0-0.2,0.1-0.2,0.1s-0.1,0-0.2-0.1c-1.2-1.2-2.4-2.4-3.7-3.6C15,5.2,14.6,5,14.1,5
		s-0.9,0.3-1.4,0.7c-2.3,2.4-4.7,4.7-7,7.1c-0.4,0.4-0.6,0.9-0.6,1.3c0,0.5,0.2,0.9,0.7,1.4c1.1,1.1,2.2,2.3,3.4,3.4
		c0.1,0.1,0.3,0.2,0.4,0.3l0,0C9.1,20.6,8.5,22,8,23.4l-0.1,0.1H7.7c-0.9,0-1.9,0-2.9,0c-0.6,0-1.2,0-1.9,0c-0.1,0-0.3,0-0.4,0
		c-0.6,0-1.1,0.1-1.5,0.5c-0.3,0.3-0.5,0.8-0.5,1.4c0,1.6,0,3.1,0,4.7c0,1.7,0,3.5,0,5.2c0,0.7,0.1,1.2,0.5,1.5
		c0.3,0.3,0.9,0.5,1.5,0.5c0.2,0,0.4,0,0.5,0c0.6,0,1.1,0,1.7,0c0.9,0,1.9,0,2.8,0l0.2,0.1l0.1,0.1l0,0l0,0c0.5,1.3,1.1,2.7,1.7,4.3
		c-1.2,1.2-2.6,2.4-3.9,3.7C5.2,45.9,5,46.3,5,46.8s0.2,0.9,0.6,1.3c2.4,2.4,4.8,4.8,7.2,7.2c0.4,0.4,0.9,0.7,1.3,0.7
		c0.5,0,0.9-0.3,1.4-0.7c1.2-1.2,2.5-2.5,3.7-3.7c0.1-0.1,0.2-0.1,0.2-0.1s0.1,0,0.2,0.1c1.2,0.5,2.4,1,3.7,1.5
		c0.1,0.1,0.2,0.1,0.2,0.1s0,0.1,0,0.2l0,0c0,0.8,0,1.7,0,2.5c0,0.9,0,1.7,0,2.6c0,0.6,0.1,1.1,0.5,1.4c0.3,0.3,0.8,0.5,1.4,0.5
		c1.7,0,3.3,0,5,0l0,0c0,0,0,0,0.1,0s0,0,0.1,0l0,0c1.7,0,3.3,0,5,0c0.6,0,1.1-0.1,1.4-0.5c0.3-0.3,0.5-0.8,0.5-1.4
		c0-0.9,0-1.7,0-2.6c0-0.8,0-1.7,0-2.5l0,0c0-0.1,0-0.2,0-0.2s0.1-0.1,0.2-0.1c1.2-0.5,2.5-1,3.7-1.5c0.1,0,0.2-0.1,0.2-0.1
		s0.1,0,0.2,0.1c1.2,1.2,2.5,2.5,3.7,3.7c0.4,0.4,0.9,0.7,1.4,0.7s0.9-0.3,1.3-0.7c2.4-2.4,4.8-4.8,7.2-7.2c0.4-0.4,0.6-0.8,0.6-1.3
		s-0.2-0.9-0.6-1.3c-1.3-1.3-2.7-2.5-3.9-3.7c0.6-1.6,1.1-3,1.7-4.3l0,0l0,0l0.1-0.1l0.2-0.1c0.9,0,1.9,0,2.8,0c0.6,0,1.1,0,1.7,0
		c0.2,0,0.4,0,0.5,0c0.7,0,1.2-0.1,1.5-0.5s0.5-0.9,0.5-1.5c0-1.7,0-3.5,0-5.2C60.5,28.6,60.5,27,60.5,25.4z M58.7,35.5
		c-2.2,0-4.4,0-6.6,0h-0.2l-0.1,0.2c0,0.1-0.1,0.2-0.1,0.3c-0.5,1.8-1.2,3.6-2.2,5.2c-0.1,0.2-0.2,0.4-0.2,0.6
		c0,0.3,0.2,0.5,0.4,0.7c1.4,1.4,2.9,2.8,4.3,4.2c-2.4,2.4-4.7,4.7-7.2,7.2c0-0.1-0.1-0.1-0.2-0.2c-1.4-1.4-2.8-2.8-4.2-4.2
		c-0.1-0.2-0.3-0.3-0.5-0.3s-0.3,0.1-0.5,0.1c-1.7,1-3.4,1.7-5.3,2.2c-0.2,0-0.4,0.1-0.5,0.3c-0.1,0.2-0.1,0.3-0.1,0.5l0,0l0,0l0,0
		l0,0l0,0c0,1,0,2,0,3s0,1.9,0,2.9c0,0.1,0,0.2,0,0.3c-1.7,0-3.4,0-5,0l0,0c0,0,0,0-0.1,0s0,0-0.1,0l0,0c-1.7,0-3.4,0-5,0
		c0-0.1,0-0.2,0-0.3c0-1,0-1.9,0-2.9s0-2,0-3l0,0l0,0l0,0l0,0l0,0c0-0.2,0-0.3-0.1-0.5s-0.3-0.3-0.5-0.3c-1.9-0.5-3.6-1.2-5.3-2.2
		c-0.1-0.1-0.3-0.1-0.5-0.1s-0.4,0.1-0.6,0.3c-1.4,1.4-2.8,2.8-4.2,4.2c-0.1,0.1-0.1,0.1-0.2,0.2c-2.4-2.4-4.8-4.8-7.2-7.2
		c1.4-1.4,2.8-2.8,4.3-4.2c0.2-0.2,0.4-0.4,0.4-0.7c0-0.2-0.1-0.4-0.2-0.6c-1-1.6-1.7-3.4-2.2-5.2c0-0.1-0.1-0.2-0.1-0.3l-0.1-0.2
		H8.6c-2.2,0-4.4,0-6.6,0c0-3.4,0-6.7,0-10c2.2,0,4.4,0,6.6,0h0.2l0.1-0.2c0.3-0.8,0.4-1.6,0.7-2.2c0.5-1.2,1.1-2.4,1.7-3.5
		c0.1-0.1,0.1-0.3,0.1-0.4c0-0.2-0.1-0.4-0.3-0.5c-1.4-1.4-2.8-2.8-4.2-4.2c-0.1-0.1-0.1-0.1-0.2-0.2c2.4-2.4,4.7-4.7,7.1-7.1
		c0.7,0.7,1.3,1.3,2,2c0.8,0.8,1.6,1.6,2.4,2.4c0.1,0.1,0.3,0.3,0.5,0.3s0.3-0.1,0.4-0.1c1.7-1,3.5-1.8,5.4-2.2
		c0.2,0,0.4-0.2,0.5-0.3c0.1-0.2,0.1-0.3,0.1-0.5l0,0c0-0.4,0-2.5,0-3.2c0-0.9,0-1.8,0-2.7l0,0l0,0l0,0c0-0.2,0-0.3,0-0.3
		s0.1,0,0.3,0l0,0c1.6,0,3.2,0,4.8,0l0,0c0,0,0,0,0.1,0s0,0,0.1,0l0,0c1.6,0,3.2,0,4.8,0l0,0c0.2,0,0.3,0,0.3,0s0,0.1,0,0.3l0,0l0,0
		l0,0c0,0.9,0,1.8,0,2.7c0,0.7,0,1.4,0,2.1c0,0.4,0,0.7,0,1.1l0,0c0,0.1,0,0.3,0.1,0.5s0.3,0.3,0.5,0.3c1.9,0.5,3.7,1.3,5.4,2.2
		c0.1,0.1,0.3,0.1,0.4,0.1c0.2,0,0.4-0.1,0.5-0.3c0.8-0.8,1.6-1.6,2.4-2.4c0.7-0.7,1.4-1.4,2-2c2.4,2.4,4.7,4.7,7.1,7.1
		c-0.1,0-0.1,0.1-0.2,0.2c-1.4,1.4-2.8,2.8-4.2,4.2c-0.1,0.1-0.3,0.3-0.3,0.5c0,0.1,0.1,0.3,0.1,0.4c0.6,1.2,1.1,2.3,1.7,3.5
		c0.3,0.7,0.5,1.4,0.7,2.2l0.1,0.2H52c2.2,0,4.4,0,6.6,0C58.7,28.8,58.7,32.1,58.7,35.5z"/>
	<path class="st0" d="M30.6,15.3L30.6,15.3L30.6,15.3C30.5,15.3,30.5,15.3,30.6,15.3C30.5,15.3,30.5,15.3,30.6,15.3L30.6,15.3
		L30.6,15.3c-8.4,0-15.2,6.8-15.3,15.1v0.1c0,8.3,6.8,15.1,15.1,15.1h0.1l0,0l0,0h0.1c8.3,0,15.1-6.8,15.1-15.1v-0.1
		C45.7,22.1,38.9,15.3,30.6,15.3z M30.6,43.7L30.6,43.7L30.6,43.7C30.5,43.7,30.5,43.7,30.6,43.7C30.5,43.7,30.5,43.7,30.6,43.7
		L30.6,43.7L30.6,43.7c-7.3,0-13.3-6-13.3-13.2v-0.1c0-7.3,6-13.2,13.2-13.2l0,0l0,0c0,0,0,0,0.1,0c0,0,0,0,0.1,0l0,0l0,0
		c7.2,0,13.2,5.9,13.2,13.2v0.1C43.8,37.7,37.8,43.7,30.6,43.7z"/>
</g>
</svg>
