<?xml version="1.0" encoding="utf-8"?>
<!-- Generator: Adobe Illustrator 22.0.1, SVG Export Plug-In . SVG Version: 6.00 Build 0)  -->
<svg version="1.1" id="Layer_1" xmlns="http://www.w3.org/2000/svg" xmlns:xlink="http://www.w3.org/1999/xlink" x="0px" y="0px"
	 viewBox="0 0 62 61.9" style="enable-background:new 0 0 62 61.9;" xml:space="preserve">
<style type="text/css">
	.st0{fill:#FFFFFF;stroke:#FFFFFF;stroke-width:2;stroke-miterlimit:10;}
</style>
<g>
	<path class="st0" d="M61,25.9c0-0.6-0.1-1.1-0.5-1.4C60.2,24.2,59.7,24,59,24c-0.1,0-0.3,0-0.4,0c-0.6,0-1.2,0-1.9,0
		c-1,0-1.9,0-2.9,0h-0.2l-0.1-0.1c-0.6-1.4-1.1-2.8-1.6-4.2l0,0c0.1-0.1,0.3-0.2,0.4-0.3c1.1-1.1,2.3-2.2,3.4-3.4
		c0.4-0.4,0.7-0.9,0.7-1.4s-0.2-0.9-0.6-1.3c-2.3-2.4-4.7-4.7-7-7.1c-0.5-0.5-0.9-0.7-1.4-0.7S46.5,5.8,46,6.2
		c-1.2,1.2-2.4,2.4-3.7,3.6c-0.1,0.1-0.2,0.1-0.2,0.1s-0.1,0-0.2-0.1c-1.2-0.5-2.5-1-3.7-1.5C38.1,8.2,38,8.2,38,8.2s0-0.1,0-0.2
		l0,0c0-0.9,0-1.8,0-2.6c0-0.9,0-1.7,0-2.6c0-0.6-0.1-1-0.5-1.3C37.2,1.2,36.7,1,36.2,1c-1.7,0-3.4,0-5.1,0H31h-0.1
		c-1.7,0-3.4,0-5.1,0c-0.6,0-1,0.1-1.3,0.5C24.2,1.8,24,2.3,24,2.8c0,0.9,0,1.7,0,2.6c0,0.9,0,1.8,0,2.6l0,0c0,0.1,0,0.2,0,0.2
		s-0.1,0.1-0.2,0.1c-1.2,0.5-2.5,1-3.7,1.5c-0.1,0-0.2,0.1-0.2,0.1s-0.1,0-0.2-0.1c-1.2-1.2-2.4-2.4-3.7-3.6
		c-0.5-0.5-0.9-0.7-1.4-0.7s-0.9,0.3-1.4,0.7c-2.3,2.4-4.7,4.7-7,7.1c-0.4,0.4-0.6,0.9-0.6,1.3c0,0.5,0.2,0.9,0.7,1.4
		c1.1,1.1,2.2,2.3,3.4,3.4c0.1,0.1,0.3,0.2,0.4,0.3l0,0c-0.5,1.4-1.1,2.8-1.6,4.2L8.4,24H8.2c-0.9,0-1.9,0-2.9,0c-0.6,0-1.2,0-1.9,0
		c-0.1,0-0.3,0-0.4,0c-0.6,0-1.1,0.1-1.5,0.5C1.2,24.8,1,25.3,1,25.9c0,1.6,0,3.1,0,4.7c0,1.7,0,3.5,0,5.2c0,0.7,0.1,1.2,0.5,1.5
		c0.3,0.3,0.9,0.5,1.5,0.5c0.2,0,0.4,0,0.5,0c0.6,0,1.1,0,1.7,0c0.9,0,1.9,0,2.8,0l0.2,0.1L8.3,38l0,0l0,0c0.5,1.3,1.1,2.7,1.7,4.3
		c-1.2,1.2-2.6,2.4-3.9,3.7c-0.4,0.4-0.6,0.8-0.6,1.3s0.2,0.9,0.6,1.3c2.4,2.4,4.8,4.8,7.2,7.2c0.4,0.4,0.9,0.7,1.3,0.7
		c0.5,0,0.9-0.3,1.4-0.7c1.2-1.2,2.5-2.5,3.7-3.7c0.1-0.1,0.2-0.1,0.2-0.1s0.1,0,0.2,0.1c1.2,0.5,2.4,1,3.7,1.5
		c0.1,0.1,0.2,0.1,0.2,0.1s0,0.1,0,0.2l0,0c0,0.8,0,1.7,0,2.5c0,0.9,0,1.7,0,2.6c0,0.6,0.1,1.1,0.5,1.4c0.3,0.3,0.8,0.5,1.4,0.5
		c1.7,0,3.3,0,5,0l0,0c0,0,0,0,0.1,0s0,0,0.1,0l0,0c1.7,0,3.3,0,5,0c0.6,0,1.1-0.1,1.4-0.5c0.3-0.3,0.5-0.8,0.5-1.4
		c0-0.9,0-1.7,0-2.6c0-0.8,0-1.7,0-2.5l0,0c0-0.1,0-0.2,0-0.2s0.1-0.1,0.2-0.1c1.2-0.5,2.5-1,3.7-1.5c0.1,0,0.2-0.1,0.2-0.1
		s0.1,0,0.2,0.1c1.2,1.2,2.5,2.5,3.7,3.7c0.4,0.4,0.9,0.7,1.4,0.7s0.9-0.3,1.3-0.7c2.4-2.4,4.8-4.8,7.2-7.2c0.4-0.4,0.6-0.8,0.6-1.3
		s-0.2-0.9-0.6-1.3c-1.3-1.3-2.7-2.5-3.9-3.7c0.6-1.6,1.1-3,1.7-4.3l0,0l0,0l0.1-0.1l0.2-0.1c0.9,0,1.9,0,2.8,0c0.6,0,1.1,0,1.7,0
		c0.2,0,0.4,0,0.5,0c0.7,0,1.2-0.1,1.5-0.5s0.5-0.9,0.5-1.5c0-1.7,0-3.5,0-5.2C61,29.1,61,27.5,61,25.9z M59.2,35.9
		c-2.2,0-4.4,0-6.6,0h-0.2l-0.1,0.2c0,0.1-0.1,0.2-0.1,0.3C51.7,38.2,51,40,50,41.6c-0.1,0.2-0.2,0.4-0.2,0.6c0,0.3,0.2,0.5,0.4,0.7
		c1.4,1.4,2.9,2.8,4.3,4.2c-2.4,2.4-4.7,4.7-7.2,7.2c0-0.1-0.1-0.1-0.2-0.2c-1.4-1.4-2.8-2.8-4.2-4.2c-0.1-0.2-0.3-0.3-0.5-0.3
		s-0.3,0.1-0.5,0.1c-1.7,1-3.4,1.7-5.3,2.2c-0.2,0-0.4,0.1-0.5,0.3S36,52.5,36,52.7l0,0l0,0l0,0l0,0l0,0c0,1,0,2,0,3s0,1.9,0,2.9
		c0,0.1,0,0.2,0,0.3c-1.7,0-3.4,0-5,0l0,0c0,0,0,0-0.1,0s0,0-0.1,0l0,0c-1.7,0-3.4,0-5,0c0-0.1,0-0.2,0-0.3c0-1,0-1.9,0-2.9s0-2,0-3
		l0,0l0,0l0,0l0,0l0,0c0-0.2,0-0.3-0.1-0.5s-0.3-0.3-0.5-0.3c-1.9-0.5-3.6-1.2-5.3-2.2c-0.1-0.1-0.3-0.1-0.5-0.1s-0.4,0.1-0.6,0.3
		c-1.4,1.4-2.8,2.8-4.2,4.2c-0.1,0.1-0.1,0.1-0.2,0.2c-2.4-2.4-4.8-4.8-7.2-7.2c1.4-1.4,2.8-2.8,4.3-4.2c0.2-0.2,0.4-0.4,0.4-0.7
		c0-0.2-0.1-0.4-0.2-0.6c-1-1.6-1.7-3.4-2.2-5.2c0-0.1-0.1-0.2-0.1-0.3l-0.1-0.2H9.1c-2.2,0-4.4,0-6.6,0c0-3.4,0-6.7,0-10
		c2.2,0,4.4,0,6.6,0h0.2l0.1-0.2c0.3-0.8,0.4-1.6,0.7-2.2c0.5-1.2,1.1-2.4,1.7-3.5c0.1-0.1,0.1-0.3,0.1-0.4c0-0.2-0.1-0.4-0.3-0.5
		c-1.4-1.4-2.8-2.8-4.2-4.2c-0.1-0.1-0.1-0.1-0.2-0.2c2.4-2.4,4.7-4.7,7.1-7.1c0.7,0.7,1.3,1.3,2,2c0.8,0.8,1.6,1.6,2.4,2.4
		c0.1,0.1,0.3,0.3,0.5,0.3s0.3-0.1,0.4-0.1c1.7-1,3.5-1.8,5.4-2.2c0.2,0,0.4-0.2,0.5-0.3c0.1-0.2,0.1-0.3,0.1-0.5l0,0
		c0-0.4,0-2.5,0-3.2c0-0.9,0-1.8,0-2.7l0,0l0,0l0,0c0-0.2,0-0.3,0-0.3s0.1,0,0.3,0l0,0c1.6,0,3.2,0,4.8,0l0,0c0,0,0,0,0.1,0
		s0,0,0.1,0l0,0c1.6,0,3.2,0,4.8,0l0,0C35.9,3,36,3,36,3s0,0.1,0,0.3l0,0l0,0l0,0c0,0.9,0,1.8,0,2.7c0,0.7,0,1.4,0,2.1
		c0,0.4,0,0.7,0,1.1l0,0c0,0.1,0,0.3,0.1,0.5s0.3,0.3,0.5,0.3c1.9,0.5,3.7,1.3,5.4,2.2c0.1,0.1,0.3,0.1,0.4,0.1
		c0.2,0,0.4-0.1,0.5-0.3c0.8-0.8,1.6-1.6,2.4-2.4c0.7-0.7,1.4-1.4,2-2c2.4,2.4,4.7,4.7,7.1,7.1c-0.1,0-0.1,0.1-0.2,0.2
		c-1.4,1.4-2.8,2.8-4.2,4.2c-0.1,0.1-0.3,0.3-0.3,0.5c0,0.1,0.1,0.3,0.1,0.4c0.6,1.2,1.1,2.3,1.7,3.5c0.3,0.7,0.5,1.4,0.7,2.2
		l0.1,0.2h0.2c2.2,0,4.4,0,6.6,0C59.2,29.2,59.2,32.5,59.2,35.9z"/>
	<path class="st0" d="M31.1,15.8L31.1,15.8L31.1,15.8C31,15.8,31,15.8,31.1,15.8C31,15.8,31,15.8,31.1,15.8L31.1,15.8L31.1,15.8
		c-8.4,0-15.2,6.8-15.3,15.1V31c0,8.3,6.8,15.1,15.1,15.1H31l0,0l0,0h0.1c8.3,0,15.1-6.8,15.1-15.1v-0.1
		C46.2,22.6,39.4,15.8,31.1,15.8z M31.1,44.2L31.1,44.2L31.1,44.2C31,44.2,31,44.2,31.1,44.2C31,44.2,31,44.2,31.1,44.2L31.1,44.2
		L31.1,44.2c-7.3,0-13.3-6-13.3-13.2v-0.1c0-7.3,6-13.2,13.2-13.2l0,0l0,0c0,0,0,0,0.1,0c0,0,0,0,0.1,0l0,0l0,0
		c7.2,0,13.2,5.9,13.2,13.2V31C44.3,38.2,38.3,44.2,31.1,44.2z"/>
</g>
</svg>
