<?xml version="1.0" encoding="utf-8"?>
<!-- Generator: Adobe Illustrator 22.0.1, SVG Export Plug-In . SVG Version: 6.00 Build 0)  -->
<svg version="1.1" id="Layer_1" xmlns="http://www.w3.org/2000/svg" xmlns:xlink="http://www.w3.org/1999/xlink" x="0px" y="0px"
	 viewBox="0 0 298.1 298.1" style="enable-background:new 0 0 298.1 298.1;" xml:space="preserve">
<style type="text/css">
	.st0{fill:none;stroke:#FFFFFF;stroke-width:16;stroke-miterlimit:10;}
	.st1{fill:#FFFFFF;}
</style>
<circle class="st0" cx="149" cy="149" r="141"/>
<g>
	<path class="st1" d="M129.9,192l-0.6-7.7c-1.8-15.9,3.5-33.3,18.2-50.9c13.2-15.6,20.6-27.1,20.6-40.3c0-15-9.4-25-28-25.3
		c-10.6,0-22.4,3.5-29.7,9.1l-7.1-18.5c9.7-7.1,26.5-11.8,42.1-11.8c33.8,0,49.1,20.9,49.1,43.3c0,20-11.2,34.4-25.3,51.2
		c-12.9,15.3-17.7,28.2-16.8,43.3l0.3,7.7H129.9z"/>
	<path class="st1" d="M123.4,233.2c0-10.9,7.4-18.5,17.7-18.5c10.3,0,17.4,7.7,17.4,18.5c0,10.3-6.8,18.2-17.7,18.2
		C130.5,251.4,123.4,243.5,123.4,233.2z"/>
</g>
</svg>
