<?xml version="1.0" encoding="utf-8"?>
<!-- Generator: Adobe Illustrator 22.0.1, SVG Export Plug-In . SVG Version: 6.00 Build 0)  -->
<svg version="1.1" id="Livello_1" xmlns="http://www.w3.org/2000/svg" xmlns:xlink="http://www.w3.org/1999/xlink" x="0px" y="0px"
	 viewBox="0 0 128 128" style="enable-background:new 0 0 128 128;" xml:space="preserve">
<style type="text/css">
	.st0{fill:#FFFFFF;}
</style>
<title></title>
<path class="st0" d="M0.8,123c-1.1,1.2-1.1,3.1,0.1,4.2s3.1,1.1,4.2-0.1l48.5-48.1c8.2,7.1,18.6,11,29.4,10.9
	c11.9,0,23.4-4.7,31.8-13.2c17.6-17.6,17.6-46.1,0-63.6l0,0C106.5,4.7,95,0,83.1,0c-11,0-21.6,4-29.9,11.3
	c-18.6,16.5-20.3,44.9-3.8,63.5L1,122.9C0.9,122.9,0.9,123,0.8,123z M110.6,72.6c-15.2,15.2-39.9,15.2-55.1,0l0,0
	c-15.2-15.2-15.2-39.9,0-55.2s39.9-15.2,55.2,0l0,0C125.9,32.7,125.9,57.4,110.6,72.6L110.6,72.6z"/>
</svg>
